<?xml version="1.0" standalone="no"?>
<!DOCTYPE svg PUBLIC "-//W3C//DTD SVG 20010904//EN"
 "http://www.w3.org/TR/2001/REC-SVG-20010904/DTD/svg10.dtd">
<svg version="1.0" xmlns="http://www.w3.org/2000/svg"
 width="2048.000000pt" height="2048.000000pt" viewBox="0 0 2048.000000 2048.000000"
 preserveAspectRatio="xMidYMid meet">
<metadata>
Created by potrace 1.14, written by Peter Selinger 2001-2017
</metadata>
<g transform="translate(0.000000,2048.000000) scale(0.100000,-0.100000)"
fill="#000000" stroke="none">
<path d="M13496 19998 c-9 -5 -16 -7 -16 -4 0 9 -81 -36 -105 -58 -19 -18
-169 -213 -215 -280 -8 -11 -23 -30 -32 -41 -9 -11 -57 -72 -105 -137 -48 -64
-142 -188 -207 -275 -66 -87 -126 -165 -133 -173 -12 -13 -68 -87 -191 -250
-18 -25 -46 -60 -60 -79 -34 -43 -220 -288 -275 -361 -22 -30 -44 -56 -49 -58
-4 -2 -8 -10 -8 -17 0 -7 -4 -15 -8 -17 -5 -1 -71 -86 -148 -188 -76 -102
-142 -187 -145 -190 -3 -3 -25 -32 -50 -65 -24 -33 -54 -71 -66 -85 -13 -14
-23 -28 -23 -32 0 -3 -6 -13 -13 -20 -7 -7 -24 -29 -37 -48 -14 -19 -31 -42
-38 -50 -8 -8 -33 -42 -58 -75 -24 -33 -50 -67 -57 -75 -8 -8 -42 -53 -77
-100 -34 -47 -67 -86 -71 -88 -5 -2 -9 -10 -9 -17 0 -7 -4 -15 -8 -17 -5 -1
-34 -37 -65 -78 -65 -88 -157 -209 -247 -326 -14 -17 -34 -45 -45 -60 -11 -15
-29 -39 -41 -53 -11 -14 -72 -93 -134 -176 -63 -82 -144 -189 -180 -236 -36
-47 -74 -98 -85 -113 -11 -16 -25 -33 -30 -40 -12 -12 -239 -310 -294 -385
-19 -25 -38 -47 -43 -49 -4 -2 -8 -10 -8 -17 0 -7 -4 -15 -8 -17 -4 -1 -80
-97 -167 -213 -87 -115 -162 -212 -165 -215 -3 -3 -23 -30 -45 -60 -22 -30
-44 -60 -50 -66 -5 -7 -18 -22 -27 -35 -22 -30 -424 -561 -435 -574 -5 -5 -22
-28 -38 -50 -17 -22 -34 -45 -40 -51 -5 -6 -21 -26 -35 -44 -14 -19 -46 -61
-71 -94 -25 -34 -78 -104 -117 -156 -40 -52 -81 -106 -92 -120 -11 -14 -52
-68 -92 -120 -40 -52 -75 -97 -78 -100 -3 -3 -18 -23 -33 -46 -15 -22 -35 -49
-45 -60 -10 -10 -28 -35 -42 -54 -13 -19 -27 -37 -30 -40 -4 -3 -26 -32 -50
-64 -24 -33 -49 -67 -56 -75 -7 -9 -66 -86 -130 -171 -65 -85 -122 -159 -126
-165 -5 -5 -56 -73 -114 -150 -137 -182 -147 -195 -159 -208 -5 -7 -44 -57
-86 -112 -106 -141 -208 -275 -235 -310 -41 -52 -233 -306 -307 -405 -40 -52
-74 -97 -78 -100 -3 -3 -25 -32 -49 -65 -24 -33 -56 -76 -72 -95 -16 -19 -32
-40 -36 -45 -17 -24 -157 -210 -162 -215 -3 -3 -39 -50 -81 -105 -107 -142
-208 -275 -235 -310 -32 -42 -265 -348 -288 -380 -11 -14 -28 -36 -38 -48 -60
-73 -275 -362 -288 -387 -7 -14 -16 -27 -20 -30 -31 -21 -52 -218 -29 -277 10
-27 36 -117 44 -157 10 -44 64 -144 97 -178 41 -42 81 -64 129 -74 52 -10 66
-8 214 21 44 9 91 18 105 21 14 2 45 9 70 14 25 5 56 12 70 14 14 3 36 7 50
10 43 10 125 26 151 31 13 3 35 7 49 11 14 3 36 7 50 9 23 3 78 15 140 29 14
3 75 16 135 27 143 28 140 27 140 29 0 1 9 3 20 5 56 8 108 18 190 36 86 19
153 33 220 45 17 3 104 20 195 39 91 19 176 36 190 39 14 2 61 12 105 21 44 9
89 18 100 21 11 2 55 11 98 20 42 8 89 17 103 20 14 3 123 25 242 49 120 24
231 47 247 50 32 5 67 12 100 19 11 2 65 14 119 25 55 12 100 21 102 21 2 0
-315 -792 -369 -920 -5 -14 -11 -29 -13 -35 -3 -12 -201 -503 -214 -530 -5
-11 -40 -99 -78 -195 -125 -314 -174 -435 -183 -455 -5 -11 -38 -94 -74 -185
-36 -91 -70 -174 -75 -185 -5 -11 -93 -229 -195 -485 -102 -256 -190 -474
-195 -485 -5 -11 -23 -56 -40 -100 -17 -44 -37 -93 -45 -110 -7 -16 -63 -156
-124 -310 -62 -154 -116 -289 -121 -300 -5 -11 -19 -45 -31 -75 -12 -30 -27
-68 -34 -85 -12 -28 -195 -484 -265 -660 -18 -44 -38 -93 -45 -110 -6 -16 -43
-106 -80 -200 -37 -93 -73 -183 -80 -200 -8 -16 -32 -77 -55 -135 -22 -58 -48
-119 -55 -137 -8 -17 -15 -34 -15 -38 0 -3 -8 -25 -19 -48 -30 -69 -91 -231
-106 -283 -19 -67 -28 -92 -150 -394 -59 -146 -140 -348 -181 -450 -41 -102
-78 -193 -84 -202 -5 -10 -10 -23 -10 -28 0 -6 -11 -35 -24 -63 -67 -146 -136
-339 -140 -391 -3 -31 -8 -60 -11 -66 -3 -5 -2 -10 4 -10 5 0 8 -9 6 -20 -2
-11 0 -22 5 -25 5 -3 7 -12 3 -20 -3 -8 0 -15 6 -15 6 0 11 -5 11 -10 0 -21
46 -72 85 -95 53 -31 141 -50 151 -33 3 5 11 7 18 5 13 -5 69 18 102 43 19 14
88 98 184 223 128 166 167 215 183 231 9 10 17 20 17 24 0 4 13 21 28 39 52
60 62 73 62 82 0 5 4 11 8 13 7 3 127 153 255 321 21 27 43 55 48 61 18 22 98
125 204 261 60 77 113 142 117 143 4 2 8 10 8 18 0 8 3 14 8 14 4 0 23 23 42
50 19 27 38 50 43 50 4 0 7 7 7 16 0 8 5 12 10 9 6 -3 10 -1 10 5 0 7 33 53
73 104 40 50 127 160 192 245 66 84 142 181 168 215 26 33 66 85 89 115 23 30
47 62 54 70 31 38 155 196 171 218 10 14 38 50 63 82 25 31 57 72 72 91 129
166 152 196 158 200 4 3 11 12 16 21 5 9 21 32 36 50 45 56 109 137 203 259
49 63 93 120 98 125 4 6 39 51 78 100 38 50 78 99 87 110 9 11 27 36 41 55 13
19 27 37 30 40 4 3 38 46 76 95 38 50 71 92 74 95 3 3 19 23 35 45 16 22 36
47 43 55 8 8 89 112 180 230 92 118 170 217 175 218 4 2 8 10 8 17 0 7 3 15 8
17 9 4 73 83 129 158 22 30 50 65 62 77 12 12 21 26 21 30 0 4 15 24 33 44 17
20 64 78 102 129 39 51 75 97 80 104 6 6 26 31 45 56 19 25 40 52 47 60 8 8
41 51 74 95 67 88 105 137 132 169 9 12 83 107 164 211 81 105 149 192 153
195 3 3 25 32 50 65 24 33 51 68 60 78 32 39 46 57 85 107 22 29 69 89 105
135 36 46 74 95 85 111 11 15 25 32 30 38 6 6 57 72 115 146 58 74 123 158
145 187 22 28 69 89 104 135 36 45 70 88 75 94 6 6 20 23 31 39 11 15 31 42
45 59 15 17 73 92 130 166 58 74 110 142 117 150 27 34 110 138 131 166 28 37
147 190 178 229 37 48 184 237 207 268 12 16 27 34 32 40 6 7 33 41 60 77 28
36 57 70 65 77 8 7 11 13 5 13 -5 0 -5 4 2 8 6 4 57 66 113 137 55 72 106 137
113 145 6 9 25 33 42 55 16 22 35 47 42 55 28 35 140 177 158 201 50 66 150
194 162 208 8 9 33 41 57 71 23 30 107 138 186 240 79 102 147 186 152 188 4
2 8 10 8 17 0 7 4 15 8 17 5 2 46 53 92 113 47 61 93 119 103 130 20 22 81
114 83 124 0 3 6 18 12 33 12 29 42 166 43 201 4 84 -36 229 -78 287 -86 116
-259 191 -428 185 -48 -2 -201 -28 -385 -65 -168 -34 -316 -64 -330 -66 -14
-2 -88 -17 -165 -33 -77 -16 -153 -31 -170 -34 -16 -3 -41 -8 -55 -11 -14 -3
-36 -8 -50 -10 -14 -3 -162 -32 -330 -65 -168 -34 -314 -63 -325 -65 -11 -2
-31 -7 -45 -10 -27 -6 -72 -15 -105 -21 -11 -2 -87 -17 -170 -34 -82 -16 -163
-33 -180 -35 -16 -3 -93 -19 -170 -35 -77 -16 -153 -31 -170 -34 -16 -3 -41
-8 -55 -11 -14 -3 -36 -8 -50 -10 -14 -2 -70 -14 -125 -25 -162 -35 -166 -35
-159 -14 3 10 10 27 15 38 4 11 43 108 85 215 42 107 119 303 171 435 129 327
137 349 135 358 -1 4 2 7 8 7 5 0 10 6 10 13 0 11 47 139 75 202 8 17 26 62
40 100 15 39 36 90 46 115 10 25 53 133 94 240 42 107 80 204 85 215 5 11 43
108 85 215 42 107 82 209 90 227 8 17 15 36 15 42 0 6 4 19 10 29 14 26 47
103 55 132 4 14 13 39 20 55 8 17 86 215 175 440 88 226 166 421 172 435 6 14
12 27 12 30 1 6 24 64 41 105 7 17 49 125 95 240 45 116 87 224 94 240 18 42
61 149 62 155 0 3 4 14 9 25 5 11 48 121 97 245 48 124 93 233 98 242 6 10 10
22 10 27 0 5 8 26 17 47 9 22 17 41 18 44 0 3 28 75 62 160 34 85 100 254 148
375 47 121 90 229 95 240 5 11 59 146 119 300 60 154 116 296 124 315 28 69
30 75 31 80 3 9 107 275 116 295 5 11 57 142 116 290 58 149 116 297 129 330
84 210 116 394 92 528 -7 38 -35 86 -49 87 -5 0 -8 5 -8 11 0 10 -57 63 -69
65 -3 0 -19 6 -36 13 -38 16 -108 21 -129 9z"/>
<path d="M10137 19484 c-3 -3 -70 -8 -149 -10 -183 -4 -348 -14 -513 -30 -33
-3 -78 -8 -100 -10 -50 -4 -120 -12 -165 -18 -35 -6 -79 -11 -155 -21 -22 -3
-49 -7 -61 -9 -36 -7 -128 -19 -154 -20 -14 -1 -27 -4 -30 -7 -6 -7 -74 -20
-105 -20 -10 0 -25 -5 -32 -11 -10 -8 -13 -7 -13 3 0 12 -2 12 -9 0 -5 -8 -16
-11 -25 -8 -9 4 -16 3 -16 -1 0 -5 -10 -9 -22 -9 -31 -2 -70 -9 -88 -16 -16
-7 -63 -15 -93 -16 -10 -1 -16 -4 -14 -8 3 -5 -5 -8 -16 -9 -24 -1 -58 -7
-127 -24 -25 -7 -52 -13 -61 -15 -33 -7 -245 -65 -289 -79 -25 -8 -79 -25
-120 -37 -41 -13 -77 -23 -80 -24 -3 -1 -12 -4 -20 -7 -8 -3 -40 -13 -70 -23
-30 -9 -62 -19 -70 -23 -8 -3 -17 -6 -20 -6 -3 -1 -11 -5 -17 -9 -7 -5 -13 -5
-13 -1 0 3 -11 -1 -25 -10 -14 -9 -25 -14 -25 -12 0 3 -15 -1 -34 -9 -18 -8
-36 -11 -40 -8 -3 4 -6 1 -6 -5 0 -7 -3 -11 -7 -10 -5 0 -17 -2 -28 -7 -11 -4
-78 -30 -149 -58 -71 -27 -140 -56 -154 -63 -14 -7 -29 -11 -34 -8 -4 3 -8 1
-8 -4 0 -5 -19 -15 -42 -22 -24 -8 -46 -18 -49 -22 -3 -5 -16 -10 -29 -13 -12
-2 -40 -13 -61 -25 -22 -11 -39 -17 -39 -13 0 3 -8 -1 -17 -10 -10 -8 -30 -19
-45 -22 -16 -4 -28 -11 -28 -16 0 -5 -5 -9 -11 -9 -13 0 -341 -161 -349 -171
-3 -3 -35 -21 -72 -39 -38 -19 -68 -38 -68 -43 0 -4 -4 -5 -10 -2 -5 3 -10 1
-10 -6 0 -7 -3 -10 -6 -7 -3 4 -41 -16 -85 -43 -44 -27 -85 -49 -90 -49 -5 0
-9 -4 -9 -10 0 -5 -5 -10 -12 -10 -7 0 -28 -11 -47 -23 -73 -48 -96 -61 -103
-59 -5 1 -8 -2 -8 -6 0 -4 -22 -21 -50 -37 -27 -16 -50 -33 -50 -38 0 -4 -4
-6 -9 -3 -4 3 -16 -3 -26 -14 -10 -11 -23 -20 -30 -20 -7 0 -23 -9 -36 -21
-13 -12 -49 -37 -79 -57 -30 -20 -57 -39 -60 -42 -3 -3 -22 -16 -42 -29 -21
-12 -38 -27 -38 -32 0 -6 -4 -8 -9 -4 -6 3 -14 -3 -20 -12 -6 -10 -11 -14 -11
-10 0 8 -3 6 -61 -43 -20 -16 -41 -30 -47 -30 -6 0 -12 -4 -14 -9 -4 -12 -105
-91 -117 -91 -5 0 -11 -7 -15 -15 -3 -8 -13 -15 -21 -15 -9 0 -14 -4 -10 -9 3
-5 -3 -12 -12 -15 -10 -3 -35 -22 -56 -41 -21 -19 -40 -35 -43 -35 -3 0 -19
-12 -34 -27 -16 -16 -35 -32 -43 -38 -18 -14 -159 -136 -178 -154 -9 -9 -48
-45 -88 -81 -129 -116 -311 -297 -311 -309 0 -7 -4 -9 -10 -6 -5 3 -10 2 -10
-4 0 -5 -9 -12 -20 -16 -11 -3 -19 -10 -17 -14 1 -5 -33 -45 -75 -90 -43 -45
-78 -86 -78 -91 0 -6 -6 -10 -14 -10 -7 0 -22 -12 -31 -27 -10 -16 -25 -35
-34 -44 -9 -9 -34 -37 -56 -64 -22 -26 -51 -60 -65 -75 -14 -15 -38 -44 -55
-65 -16 -20 -34 -42 -40 -49 -5 -6 -31 -38 -57 -71 -26 -33 -55 -67 -63 -76
-8 -9 -15 -19 -15 -22 0 -4 -8 -15 -17 -25 -20 -21 -51 -60 -73 -93 -8 -12
-23 -31 -33 -41 -9 -10 -15 -18 -12 -18 3 0 -17 -29 -45 -65 -28 -36 -48 -65
-45 -65 3 0 -3 -9 -13 -19 -34 -38 -43 -51 -35 -51 4 0 1 -6 -7 -13 -8 -7 -35
-43 -60 -82 -25 -38 -48 -74 -52 -80 -32 -42 -77 -115 -71 -115 5 0 4 -4 -2
-8 -14 -10 -55 -70 -55 -80 0 -4 -10 -19 -23 -32 -12 -14 -21 -26 -19 -28 2
-1 -13 -29 -32 -61 -20 -32 -36 -64 -36 -70 0 -6 -4 -11 -9 -11 -5 0 -11 -8
-14 -17 -3 -10 -20 -43 -38 -73 -17 -30 -44 -79 -59 -108 -16 -29 -33 -58 -38
-65 -6 -6 -10 -14 -10 -17 1 -3 -10 -25 -23 -50 -12 -25 -22 -48 -21 -52 1 -5
-2 -8 -7 -8 -8 0 -24 -37 -22 -52 1 -5 -3 -8 -9 -8 -5 0 -10 -4 -10 -9 0 -5
-24 -60 -54 -123 -79 -166 -103 -220 -169 -378 -6 -14 -10 -28 -9 -32 1 -5 -3
-8 -10 -8 -6 0 -9 -3 -5 -6 3 -3 -8 -35 -23 -70 -16 -35 -27 -64 -23 -64 3 0
1 -6 -5 -12 -6 -7 -10 -15 -10 -18 0 -3 -5 -16 -11 -30 -43 -103 -157 -447
-153 -462 1 -5 -2 -8 -7 -8 -5 0 -11 -12 -14 -27 -7 -36 -15 -68 -17 -68 -2 0
-7 -20 -15 -59 -3 -16 -12 -44 -20 -63 -8 -19 -14 -37 -14 -41 1 -4 0 -10 -1
-14 -1 -5 -4 -12 -5 -18 -1 -5 -3 -11 -5 -12 -1 -2 -3 -12 -5 -23 -5 -27 -13
-60 -15 -60 -1 0 -4 -13 -6 -29 -3 -16 -9 -37 -13 -45 -5 -9 -7 -24 -6 -33 2
-10 -2 -18 -8 -18 -5 0 -8 -3 -4 -6 3 -3 2 -16 -3 -28 -4 -13 -11 -40 -14 -60
-4 -21 -8 -42 -11 -46 -3 -5 -8 -23 -10 -42 -6 -35 -10 -57 -20 -98 -3 -14 -8
-41 -11 -60 -3 -19 -8 -38 -10 -41 -2 -4 -6 -31 -10 -60 -3 -30 -8 -58 -11
-62 -3 -4 -6 -24 -9 -45 -2 -20 -7 -48 -10 -62 -6 -27 -13 -70 -18 -110 -2
-14 -7 -50 -11 -80 -8 -54 -10 -73 -21 -155 -3 -22 -7 -60 -9 -85 -2 -25 -4
-45 -5 -45 -2 0 -9 -73 -14 -143 -2 -29 -6 -56 -10 -59 -3 -3 -1 -12 5 -20 7
-7 7 -13 2 -13 -6 0 -9 -12 -8 -27 1 -16 -3 -31 -9 -35 -8 -5 -7 -8 1 -8 7 0
10 -6 8 -12 -3 -7 -7 -42 -8 -78 -2 -36 -6 -71 -10 -77 -4 -7 -3 -14 3 -18 7
-4 7 -12 0 -26 -8 -13 -7 -19 0 -19 7 0 8 -5 3 -12 -10 -17 -12 -615 -2 -651
5 -16 4 -25 -2 -22 -10 7 -13 -8 -3 -18 4 -3 8 -48 10 -99 7 -181 9 -213 17
-225 5 -8 3 -13 -3 -13 -6 0 -8 -5 -3 -12 4 -7 8 -22 9 -33 1 -11 3 -45 5 -75
2 -30 9 -58 14 -62 6 -5 5 -8 -3 -8 -7 0 -11 -4 -8 -9 3 -5 8 -29 11 -52 12
-102 16 -133 21 -141 3 -4 1 -8 -5 -8 -6 0 -4 -12 4 -27 8 -15 12 -30 9 -35
-3 -5 -1 -32 5 -61 6 -28 13 -68 15 -87 2 -19 6 -44 9 -55 2 -11 8 -42 11 -70
4 -27 19 -104 33 -170 14 -66 26 -129 27 -140 2 -11 6 -27 9 -35 13 -36 27
-112 22 -121 -4 -5 -2 -9 3 -9 5 0 9 -6 9 -12 0 -7 10 -51 22 -98 12 -47 24
-94 26 -105 8 -36 27 -110 32 -125 7 -18 10 -29 17 -55 2 -11 19 -67 36 -125
18 -58 33 -109 34 -115 1 -5 7 -23 13 -40 48 -127 71 -200 66 -207 -2 -5 1 -8
6 -8 6 0 10 -3 9 -7 -1 -8 6 -30 22 -68 5 -11 14 -39 21 -62 7 -24 16 -43 21
-43 5 0 7 -4 4 -8 -3 -5 1 -20 9 -35 8 -15 11 -27 8 -27 -3 0 0 -6 6 -13 6 -8
8 -17 4 -20 -3 -4 -1 -7 5 -7 7 0 12 -7 12 -15 0 -8 4 -23 9 -33 9 -16 21 -47
26 -64 2 -5 4 -11 5 -15 1 -5 2 -11 1 -15 0 -5 3 -8 7 -8 4 0 16 -22 26 -50
10 -27 21 -50 25 -50 4 0 8 -12 9 -27 1 -14 8 -34 16 -42 8 -9 15 -20 15 -24
0 -4 10 -29 22 -55 12 -26 31 -67 43 -92 12 -25 24 -46 29 -48 4 -2 7 -10 7
-17 0 -7 31 -74 69 -149 39 -75 67 -136 63 -136 -4 0 -1 -4 5 -8 13 -8 37 -49
95 -162 18 -36 36 -66 40 -68 4 -2 21 -31 39 -65 17 -34 35 -64 39 -67 3 -3
13 -19 20 -37 8 -17 18 -29 22 -27 4 3 8 -4 8 -15 0 -12 5 -21 10 -21 6 0 10
-7 10 -15 0 -8 5 -15 10 -15 6 0 10 -5 10 -11 0 -5 18 -37 40 -69 22 -32 40
-64 40 -69 0 -6 5 -11 10 -11 6 0 10 -7 10 -15 0 -8 4 -15 8 -15 12 0 42 -56
34 -65 -4 -5 -1 -5 6 -1 7 4 12 1 12 -8 0 -8 4 -16 8 -18 5 -1 28 -32 52 -68
24 -36 46 -67 49 -70 7 -6 42 -55 88 -124 18 -26 33 -44 33 -40 0 5 9 -6 20
-24 12 -19 32 -46 45 -60 14 -15 25 -30 25 -33 0 -3 8 -15 18 -27 9 -12 26
-32 37 -46 11 -14 29 -36 40 -49 11 -13 31 -38 45 -56 14 -17 34 -42 45 -55
11 -12 40 -47 65 -76 25 -30 59 -68 75 -86 17 -17 62 -67 100 -110 39 -43 125
-134 192 -203 68 -69 123 -129 123 -135 0 -5 3 -7 6 -4 3 4 31 -19 63 -50 79
-78 313 -292 353 -322 11 -8 32 -27 48 -42 16 -16 31 -28 34 -28 3 0 14 -8 24
-18 21 -19 36 -32 119 -97 32 -25 65 -51 73 -59 8 -7 44 -34 80 -61 36 -26 68
-52 71 -57 4 -6 12 -7 19 -3 9 5 11 4 6 -3 -4 -7 -3 -12 2 -12 4 0 17 -8 28
-18 10 -9 46 -35 79 -57 33 -22 62 -42 65 -45 3 -3 39 -28 80 -55 41 -28 77
-53 78 -57 2 -5 10 -8 18 -8 8 0 14 -5 14 -11 0 -5 5 -7 10 -4 6 3 10 2 10 -3
0 -5 12 -15 28 -23 15 -8 29 -17 32 -20 3 -3 34 -23 70 -45 36 -21 67 -42 70
-46 7 -8 83 -26 140 -32 35 -4 105 18 144 45 26 18 77 79 82 99 0 3 5 16 11
30 13 31 94 229 135 330 16 41 36 89 43 105 7 17 23 55 35 85 12 30 31 74 41
97 11 24 19 45 19 47 0 2 8 21 17 42 9 22 18 44 19 49 1 6 21 55 44 110 23 55
75 183 117 285 41 102 81 199 88 215 7 17 52 127 100 245 48 118 93 229 100
245 31 72 70 170 71 175 0 3 6 19 13 35 22 50 56 132 126 307 25 62 53 127 60
145 8 17 15 33 15 36 0 3 9 26 20 51 11 26 20 48 20 51 0 3 10 26 21 52 20 47
86 208 203 498 32 77 64 154 72 172 8 17 14 34 14 38 0 3 9 25 19 48 10 23 57
137 104 252 47 116 93 228 102 250 9 22 20 49 25 60 5 11 21 51 35 89 15 38
31 77 35 85 5 9 28 63 51 121 22 58 46 111 51 118 6 6 8 12 4 12 -3 0 -2 10 3
23 7 18 16 67 23 126 0 3 -1 8 -2 11 -1 3 -3 16 -4 30 -2 33 -35 99 -63 127
-42 43 -102 67 -167 66 -52 0 -115 -7 -123 -14 -4 -2 -9 -3 -78 -18 -33 -7
-73 -16 -90 -21 -16 -5 -43 -12 -60 -15 -16 -2 -39 -7 -50 -10 -47 -12 -202
-47 -220 -50 -11 -1 -40 -8 -65 -15 -25 -7 -54 -14 -65 -16 -28 -5 -44 -9
-175 -39 -63 -15 -122 -28 -130 -30 -8 -2 -15 -4 -15 -5 0 -1 -12 -3 -26 -5
-14 -2 -45 -9 -70 -15 -49 -13 -86 -22 -109 -24 -9 -1 -20 -5 -25 -8 -6 -3
-28 -9 -50 -13 -45 -9 -39 -8 -120 -26 -72 -15 -74 -16 -77 -19 -3 -2 -17 -4
-87 -14 -24 -4 -47 -8 -50 -11 -12 -7 -143 -17 -211 -17 -123 0 -367 72 -512
149 -139 75 -160 88 -216 133 -66 53 -124 132 -187 252 -45 86 -102 230 -111
277 -3 14 -7 28 -9 31 -26 41 -25 312 1 480 19 125 159 444 243 552 20 25 102
136 183 245 317 427 489 659 501 673 7 8 37 49 67 90 30 41 57 77 60 80 3 3
16 22 30 42 14 21 28 38 33 38 4 0 7 7 7 15 0 7 6 18 13 22 7 4 41 49 77 98
35 50 70 96 77 103 7 8 18 23 24 34 6 12 20 31 30 42 11 12 50 62 87 113 124
170 226 308 235 318 4 6 46 62 93 125 47 63 92 123 100 133 8 9 14 22 14 27 0
6 4 10 9 10 5 0 20 17 32 38 13 20 28 42 34 48 5 6 19 23 30 38 42 58 217 292
229 306 6 9 26 36 43 60 17 25 39 55 49 67 45 51 53 63 48 63 -3 0 12 21 33
48 21 26 63 81 93 122 30 41 60 82 67 90 20 22 166 219 178 238 8 13 132 181
168 227 23 30 156 208 191 256 80 110 130 174 138 177 4 2 8 8 8 13 0 5 24 40
53 78 28 38 61 81 72 97 11 15 36 48 55 73 20 25 80 107 135 181 55 74 103
140 108 145 4 6 71 96 149 200 77 105 145 193 150 196 5 3 8 8 6 10 -1 3 13
25 33 49 20 25 47 61 61 80 44 65 233 315 241 318 4 2 7 10 7 18 0 8 5 14 10
14 6 0 10 7 10 15 0 8 4 15 8 15 5 0 22 19 39 43 64 89 268 363 280 375 7 8
18 23 24 35 7 11 16 26 21 31 30 35 478 640 478 646 0 5 3 10 8 12 4 2 27 30
52 63 24 33 50 66 56 75 7 8 44 58 83 110 38 52 76 103 83 112 7 10 67 90 133
179 66 89 197 265 290 390 94 125 177 237 185 249 8 12 93 125 188 253 95 128
205 276 245 330 40 54 82 110 95 124 12 14 22 30 22 35 0 5 7 16 15 25 8 8 13
19 9 24 -3 6 -2 15 3 22 6 7 9 32 8 57 -4 101 -34 154 -120 209 -30 20 -63 26
-170 36 -33 3 -78 7 -100 10 -160 18 -178 20 -315 29 -52 4 -122 9 -155 12
-33 2 -148 6 -255 9 -108 2 -200 4 -205 5 -6 2 -14 1 -20 0 -25 -6 -71 -4 -76
3 -3 4 -8 4 -12 1z"/>
<path d="M14468 18284 c-2 -2 -13 -5 -24 -7 -62 -12 -112 -55 -148 -125 -13
-26 -70 -171 -126 -322 -57 -151 -107 -286 -113 -300 -6 -14 -11 -29 -13 -35
-1 -5 -28 -75 -59 -155 -31 -80 -76 -197 -100 -260 -25 -63 -50 -128 -56 -145
-7 -16 -13 -34 -15 -40 -1 -5 -66 -174 -144 -375 -78 -201 -145 -376 -150
-390 -20 -57 -64 -171 -169 -445 -112 -287 -279 -726 -392 -1025 -33 -85 -63
-164 -68 -175 -6 -11 -31 -76 -57 -145 -26 -69 -55 -145 -64 -170 -10 -25 -31
-81 -48 -125 -16 -44 -35 -91 -40 -105 -6 -14 -29 -74 -52 -135 -22 -60 -45
-119 -50 -130 -5 -11 -34 -87 -65 -170 -32 -82 -66 -170 -77 -194 -35 -79 -45
-115 -44 -166 l1 -50 50 -1 c28 0 59 3 70 7 11 3 47 10 80 14 32 3 62 8 65 10
3 1 28 6 55 9 28 4 57 9 65 11 8 3 31 6 50 9 19 2 46 7 60 10 14 3 43 8 65 11
68 10 109 16 135 21 108 20 193 34 235 40 28 3 52 8 55 9 3 2 26 6 50 10 58 8
93 13 160 25 95 16 114 20 136 24 12 2 45 7 75 11 30 4 57 9 60 10 3 2 28 7
55 10 27 4 66 10 87 15 92 20 301 5 482 -35 138 -30 331 -119 436 -201 174
-137 309 -422 345 -729 18 -156 -5 -461 -44 -590 -24 -75 -167 -350 -213 -407
-70 -88 -68 -87 -124 -158 -27 -36 -54 -70 -60 -77 -16 -20 -28 -34 -78 -100
-26 -34 -53 -68 -60 -75 -6 -7 -39 -49 -72 -93 -33 -44 -62 -82 -65 -85 -5 -4
-44 -53 -132 -165 -78 -99 -148 -189 -168 -215 -14 -18 -32 -41 -40 -51 -8 -9
-24 -30 -35 -45 -11 -15 -35 -43 -52 -63 -18 -20 -33 -39 -33 -43 0 -4 -6 -13
-13 -20 -7 -7 -53 -65 -102 -128 -49 -63 -99 -126 -112 -139 -13 -13 -23 -30
-23 -37 0 -8 -4 -14 -9 -14 -5 0 -26 -24 -47 -52 -21 -29 -41 -55 -45 -58 -4
-3 -36 -43 -71 -90 -56 -73 -203 -260 -256 -325 -10 -12 -39 -50 -67 -85 -27
-36 -53 -66 -57 -68 -5 -2 -8 -8 -8 -13 0 -5 -9 -19 -19 -31 -11 -13 -61 -75
-111 -138 -50 -63 -96 -122 -103 -130 -7 -8 -34 -43 -60 -77 -26 -34 -53 -68
-60 -75 -7 -7 -23 -29 -37 -48 -13 -19 -30 -42 -37 -50 -8 -8 -46 -55 -84
-105 -39 -49 -82 -103 -96 -120 -14 -16 -36 -47 -50 -67 -14 -21 -30 -38 -34
-38 -5 0 -9 -5 -9 -10 0 -6 -21 -37 -47 -68 -27 -32 -61 -75 -78 -96 -16 -21
-38 -47 -47 -59 -10 -11 -18 -23 -18 -26 0 -3 -17 -25 -38 -48 -20 -24 -53
-64 -72 -90 -19 -27 -38 -50 -41 -53 -4 -3 -18 -23 -33 -44 -14 -21 -26 -36
-26 -32 0 4 -28 -30 -62 -76 -34 -46 -65 -85 -68 -88 -3 -3 -21 -25 -40 -50
-19 -25 -38 -49 -42 -55 -82 -103 -175 -222 -268 -341 -63 -81 -119 -152 -125
-158 -5 -6 -32 -40 -60 -76 -27 -36 -52 -67 -55 -70 -3 -3 -18 -23 -34 -45
-16 -22 -36 -47 -43 -55 -8 -8 -34 -42 -59 -75 -25 -33 -58 -76 -74 -95 -16
-19 -51 -64 -80 -100 -28 -36 -56 -72 -63 -80 -7 -8 -27 -35 -46 -60 -19 -25
-40 -49 -46 -55 -6 -5 -16 -17 -21 -26 -5 -9 -21 -32 -36 -50 -14 -19 -99
-126 -187 -239 -89 -113 -174 -221 -189 -240 -16 -19 -52 -66 -82 -105 -29
-38 -56 -72 -60 -75 -3 -3 -35 -43 -70 -90 -36 -47 -70 -89 -76 -95 -5 -5 -23
-28 -39 -50 -16 -22 -34 -45 -40 -51 -5 -6 -21 -26 -35 -44 -14 -18 -61 -79
-105 -135 -44 -55 -102 -130 -130 -165 -27 -36 -52 -67 -55 -70 -3 -3 -21 -25
-40 -50 -40 -52 -31 -40 -120 -155 -39 -49 -76 -97 -83 -105 -6 -8 -28 -35
-47 -60 -19 -25 -37 -47 -40 -50 -3 -3 -44 -54 -90 -115 -67 -87 -220 -281
-303 -385 -7 -8 -43 -56 -82 -105 -38 -50 -72 -92 -75 -95 -4 -4 -47 -59 -82
-105 -4 -5 -39 -49 -78 -97 -38 -49 -70 -92 -70 -98 0 -5 -4 -10 -8 -10 -4 0
-26 -24 -47 -52 -22 -29 -56 -73 -75 -98 -63 -78 -81 -139 -67 -223 12 -66 46
-109 101 -126 31 -10 161 -31 226 -36 51 -4 155 -21 155 -25 0 -2 46 -8 110
-14 28 -3 66 -7 85 -10 33 -4 102 -12 195 -21 162 -16 286 -24 467 -30 65 -2
123 -7 129 -11 8 -4 9 -3 5 4 -5 9 0 10 16 4 26 -9 68 -8 92 1 9 4 16 3 16 -1
0 -9 123 -8 138 2 7 4 12 4 12 -1 0 -4 23 -8 50 -8 28 0 50 2 50 5 0 3 46 6
103 6 118 2 375 17 472 28 22 3 69 8 105 11 36 4 79 9 95 10 33 4 120 15 220
30 22 3 56 7 75 9 19 3 35 5 35 6 0 4 44 11 90 14 28 3 50 5 50 6 0 2 5 3 105
25 41 9 90 18 109 21 18 3 43 8 55 10 11 2 37 7 56 10 19 3 37 10 38 15 2 5 7
7 11 5 4 -3 47 4 97 15 115 26 109 25 179 44 33 10 78 21 100 27 22 5 69 18
105 29 36 11 72 22 80 24 8 2 53 16 100 30 47 15 94 29 105 32 11 3 25 10 32
15 7 5 17 7 23 3 5 -3 10 -1 10 5 0 7 7 10 15 7 8 -4 17 -2 20 3 4 6 15 10 26
10 10 0 19 4 19 8 0 4 11 9 24 10 13 1 37 7 52 13 16 7 32 12 37 11 4 -1 7 3
7 9 0 5 4 8 8 5 5 -3 20 1 34 8 14 8 50 22 79 31 30 10 59 21 64 25 9 6 102
43 115 45 3 1 23 9 45 19 22 10 45 19 50 20 6 1 24 10 41 19 17 9 34 13 38 10
3 -4 6 -1 6 5 0 7 5 12 11 12 5 0 35 11 65 25 30 14 59 25 64 25 6 0 10 5 10
11 0 5 5 7 10 4 6 -3 10 -1 10 4 0 6 3 10 8 9 4 -1 21 5 37 12 17 7 32 14 35
14 18 4 356 180 361 188 3 5 8 9 10 8 9 -3 57 19 64 30 3 5 11 8 16 5 5 -4 12
1 15 9 3 9 10 14 14 11 5 -3 16 2 24 11 9 8 16 12 16 8 0 -4 8 0 18 8 9 8 24
18 32 21 8 4 33 18 55 31 22 14 66 40 98 58 31 18 57 36 57 40 0 5 7 8 15 8 9
0 21 5 28 11 17 14 208 139 214 139 3 0 32 20 64 45 33 25 61 45 64 45 10 0
95 64 95 72 0 4 9 8 20 8 11 0 20 5 20 10 0 6 8 14 18 17 9 4 27 17 40 30 12
13 22 21 22 18 0 -5 135 96 173 129 9 9 19 16 22 16 2 0 18 12 34 27 16 16 53
46 82 68 29 22 57 45 63 50 6 6 40 35 76 65 70 58 109 93 171 152 21 21 39 35
39 33 0 -6 159 146 294 282 126 127 261 271 376 403 62 71 59 68 115 135 27
33 52 62 55 65 3 3 18 23 35 45 29 39 46 59 92 111 13 13 22 27 22 30 0 3 14
22 32 43 17 22 31 42 30 46 -1 4 4 12 12 18 18 14 149 193 167 227 7 14 16 27
20 30 9 6 190 280 190 287 0 3 9 16 20 30 11 14 17 30 13 36 -3 5 -2 7 4 4 6
-4 18 11 28 33 10 22 22 40 27 40 5 0 6 4 3 10 -3 5 -2 10 3 10 5 0 24 29 43
65 18 36 37 65 42 65 4 0 6 4 2 9 -3 5 0 16 7 23 14 15 23 32 96 168 24 47 51
94 58 105 8 11 14 26 14 33 0 7 7 20 15 28 8 9 18 27 22 42 3 15 9 29 13 32 6
5 22 37 103 210 50 108 74 162 81 188 4 12 11 22 16 22 5 0 7 7 4 15 -4 8 -1
15 7 15 7 0 9 3 6 6 -3 4 -1 16 5 28 7 11 13 23 13 26 1 3 9 22 18 44 9 21 14
42 11 47 -3 5 -1 9 4 9 9 0 25 37 23 53 -1 4 4 7 11 7 6 0 9 3 5 6 -3 3 5 30
18 60 13 30 24 55 24 57 0 4 65 194 99 287 7 19 6 15 26 85 10 33 20 67 23 75
4 8 7 18 8 23 2 4 3 8 5 10 1 1 3 9 5 17 2 8 13 45 23 82 11 36 18 69 14 72
-3 3 -1 6 5 6 5 0 10 6 11 13 4 32 11 64 21 90 6 15 9 27 6 27 -2 0 2 18 10
39 7 22 11 42 8 45 -4 3 -1 6 6 6 7 0 9 5 6 10 -3 6 -3 16 1 22 5 7 9 19 10
28 1 8 16 78 33 155 39 169 49 217 66 320 3 17 7 41 10 55 9 46 24 135 30 175
3 23 7 50 9 60 8 40 19 141 20 173 1 17 4 32 8 32 3 0 5 11 3 25 -1 14 1 25 4
25 3 0 6 21 7 48 1 26 4 74 8 107 6 53 10 112 20 263 2 23 6 45 9 48 3 4 2 15
-4 25 -7 13 -6 19 1 19 7 0 8 6 1 18 -5 10 -6 24 -2 32 5 8 8 48 7 88 -1 39 3
72 8 72 5 0 3 6 -3 13 -6 8 -8 17 -5 20 4 3 6 109 5 234 -3 309 -5 386 -16
402 -6 10 -4 12 4 6 10 -6 11 -3 2 12 -7 14 -7 23 1 31 7 7 8 12 2 12 -6 0
-10 28 -10 66 1 36 -1 67 -4 69 -3 2 -5 26 -5 54 0 28 -2 51 -5 51 -3 0 -6 17
-6 38 -2 72 -8 117 -18 124 -8 5 -8 8 0 8 7 0 9 11 7 28 -3 15 -6 45 -8 67 -2
22 -4 40 -5 40 -3 0 -9 39 -15 90 -3 28 -8 64 -10 80 -3 17 -8 48 -10 70 -3
21 -8 51 -11 65 -3 14 -7 40 -9 58 -2 18 -6 41 -9 50 -3 9 -8 32 -11 50 -10
63 -15 88 -26 142 -6 30 -13 64 -15 75 -5 26 -20 93 -29 125 -3 14 -8 36 -10
50 -3 14 -11 49 -19 79 -9 29 -13 58 -10 62 3 5 1 9 -4 9 -5 0 -14 24 -20 53
-11 53 -27 116 -57 217 -9 30 -18 62 -20 70 -7 28 -63 205 -83 260 -10 30 -20
60 -22 65 -1 6 -8 26 -16 45 -8 19 -16 41 -18 50 -4 18 -14 48 -27 75 -6 12
-11 27 -13 35 -2 8 -8 26 -13 40 -6 14 -9 28 -7 31 2 4 -3 10 -12 13 -8 3 -13
10 -9 16 3 5 1 17 -4 27 -14 26 -24 57 -23 66 1 4 -3 7 -10 7 -6 0 -9 3 -6 6
4 3 -7 35 -23 72 -17 37 -34 76 -38 87 -5 11 -17 38 -27 60 -10 22 -19 42 -19
45 -1 3 -18 41 -39 85 -21 44 -39 85 -40 91 -1 7 -7 18 -14 26 -6 8 -9 18 -5
21 3 4 1 7 -6 7 -7 0 -9 5 -6 10 3 6 1 10 -5 10 -6 0 -8 5 -5 10 3 6 1 10 -6
10 -7 0 -9 3 -6 7 4 3 1 13 -7 22 -8 9 -15 18 -15 21 0 14 -21 59 -31 65 -5 3
-8 11 -5 16 4 5 1 9 -6 9 -7 0 -9 3 -6 7 4 3 3 11 -2 17 -5 6 -32 54 -59 106
-82 156 -87 165 -92 170 -3 3 -11 16 -18 29 -41 73 -57 99 -74 126 -10 17 -24
42 -30 58 -7 15 -16 27 -20 27 -4 0 -8 6 -8 13 0 7 -8 22 -17 33 -18 20 -42
59 -65 104 -7 14 -18 29 -25 33 -7 4 -13 15 -13 22 0 8 -4 15 -10 15 -5 0 -10
7 -10 15 0 8 -4 15 -9 15 -5 0 -14 13 -21 29 -6 16 -20 38 -31 50 -11 12 -17
21 -13 21 4 0 -4 10 -17 23 -13 13 -25 29 -27 36 -1 7 -11 22 -22 34 -11 11
-20 26 -20 33 0 7 -3 14 -8 16 -12 5 -72 85 -72 96 0 6 -3 12 -8 14 -4 2 -36
41 -71 88 -36 47 -68 87 -73 88 -4 2 -8 10 -8 17 0 7 -4 15 -8 17 -4 2 -23 23
-42 48 -19 25 -37 47 -40 50 -3 3 -23 28 -45 55 -21 28 -49 60 -62 71 -13 12
-23 25 -23 29 0 4 -13 20 -30 35 -16 15 -30 31 -30 35 0 5 -12 20 -27 35 -16
15 -57 60 -93 100 -36 40 -91 99 -122 131 -32 32 -58 64 -58 69 0 6 -4 8 -10
5 -5 -3 -10 0 -10 7 0 7 -16 24 -34 38 -19 14 -33 27 -31 30 2 3 -3 11 -11 18
-8 7 -14 9 -14 5 0 -4 -9 6 -20 22 -11 17 -20 27 -20 23 0 -3 -35 28 -78 70
-109 107 -181 173 -337 307 -32 28 -67 58 -77 68 -10 9 -21 17 -24 17 -4 0
-22 16 -41 35 -19 19 -37 35 -41 35 -4 0 -21 13 -38 28 -45 39 -122 99 -217
169 -21 15 -44 34 -52 41 -7 6 -18 12 -23 12 -6 0 -12 3 -14 8 -3 7 -71 60
-100 77 -9 6 -76 51 -150 101 -73 50 -137 93 -143 95 -5 2 -35 20 -65 39 -30
19 -57 35 -60 35 -3 1 -20 9 -39 19 -41 22 -108 46 -113 40z"/>
<path d="M14827 2602 c-26 -5 -19 -47 8 -47 11 0 21 8 23 19 5 23 -7 34 -31
28z"/>
</g>
</svg>
